<svg width="143" height="32" viewBox="0 0 143 32" fill="none" xmlns="http://www.w3.org/2000/svg">
<path d="M4.27 19.67H11.17V23H0.0700002V2.06H4.27V19.67ZM21.2195 23.27C19.6195 23.27 18.1795 22.92 16.8995 22.22C15.6195 21.5 14.6095 20.49 13.8695 19.19C13.1495 17.89 12.7895 16.39 12.7895 14.69C12.7895 12.99 13.1595 11.49 13.8995 10.19C14.6595 8.89 15.6895 7.89 16.9895 7.19C18.2895 6.47 19.7395 6.11 21.3395 6.11C22.9395 6.11 24.3895 6.47 25.6895 7.19C26.9895 7.89 28.0095 8.89 28.7495 10.19C29.5095 11.49 29.8895 12.99 29.8895 14.69C29.8895 16.39 29.4995 17.89 28.7195 19.19C27.9595 20.49 26.9195 21.5 25.5995 22.22C24.2995 22.92 22.8395 23.27 21.2195 23.27ZM21.2195 19.61C21.9795 19.61 22.6895 19.43 23.3495 19.07C24.0295 18.69 24.5695 18.13 24.9695 17.39C25.3695 16.65 25.5695 15.75 25.5695 14.69C25.5695 13.11 25.1495 11.9 24.3095 11.06C23.4895 10.2 22.4795 9.77 21.2795 9.77C20.0795 9.77 19.0695 10.2 18.2495 11.06C17.4495 11.9 17.0495 13.11 17.0495 14.69C17.0495 16.27 17.4395 17.49 18.2195 18.35C19.0195 19.19 20.0195 19.61 21.2195 19.61ZM39.4804 6.11C40.7204 6.11 41.8104 6.36 42.7504 6.86C43.6904 7.34 44.4304 7.97 44.9704 8.75V6.38H49.2004V23.12C49.2004 24.66 48.8904 26.03 48.2704 27.23C47.6504 28.45 46.7204 29.41 45.4804 30.11C44.2404 30.83 42.7404 31.19 40.9804 31.19C38.6204 31.19 36.6804 30.64 35.1604 29.54C33.6604 28.44 32.8104 26.94 32.6104 25.04H36.7804C37.0004 25.8 37.4704 26.4 38.1904 26.84C38.9304 27.3 39.8204 27.53 40.8604 27.53C42.0804 27.53 43.0704 27.16 43.8304 26.42C44.5904 25.7 44.9704 24.6 44.9704 23.12V20.54C44.4304 21.32 43.6804 21.97 42.7204 22.49C41.7804 23.01 40.7004 23.27 39.4804 23.27C38.0804 23.27 36.8004 22.91 35.6404 22.19C34.4804 21.47 33.5604 20.46 32.8804 19.16C32.2204 17.84 31.8904 16.33 31.8904 14.63C31.8904 12.95 32.2204 11.46 32.8804 10.16C33.5604 8.86 34.4704 7.86 35.6104 7.16C36.7704 6.46 38.0604 6.11 39.4804 6.11ZM44.9704 14.69C44.9704 13.67 44.7704 12.8 44.3704 12.08C43.9704 11.34 43.4304 10.78 42.7504 10.4C42.0704 10 41.3404 9.8 40.5604 9.8C39.7804 9.8 39.0604 9.99 38.4004 10.37C37.7404 10.75 37.2004 11.31 36.7804 12.05C36.3804 12.77 36.1804 13.63 36.1804 14.63C36.1804 15.63 36.3804 16.51 36.7804 17.27C37.2004 18.01 37.7404 18.58 38.4004 18.98C39.0804 19.38 39.8004 19.58 40.5604 19.58C41.3404 19.58 42.0704 19.39 42.7504 19.01C43.4304 18.61 43.9704 18.05 44.3704 17.33C44.7704 16.59 44.9704 15.71 44.9704 14.69ZM60.6824 23.27C59.0824 23.27 57.6424 22.92 56.3624 22.22C55.0824 21.5 54.0724 20.49 53.3324 19.19C52.6124 17.89 52.2524 16.39 52.2524 14.69C52.2524 12.99 52.6224 11.49 53.3624 10.19C54.1224 8.89 55.1524 7.89 56.4524 7.19C57.7524 6.47 59.2024 6.11 60.8024 6.11C62.4024 6.11 63.8524 6.47 65.1524 7.19C66.4524 7.89 67.4724 8.89 68.2124 10.19C68.9724 11.49 69.3524 12.99 69.3524 14.69C69.3524 16.39 68.9624 17.89 68.1824 19.19C67.4224 20.49 66.3824 21.5 65.0624 22.22C63.7624 22.92 62.3024 23.27 60.6824 23.27ZM60.6824 19.61C61.4424 19.61 62.1524 19.43 62.8124 19.07C63.4924 18.69 64.0324 18.13 64.4324 17.39C64.8324 16.65 65.0324 15.75 65.0324 14.69C65.0324 13.11 64.6124 11.9 63.7724 11.06C62.9524 10.2 61.9424 9.77 60.7424 9.77C59.5424 9.77 58.5324 10.2 57.7124 11.06C56.9124 11.9 56.5124 13.11 56.5124 14.69C56.5124 16.27 56.9024 17.49 57.6824 18.35C58.4824 19.19 59.4824 19.61 60.6824 19.61ZM86.6833 2.06V5.45H81.1033V23H76.9033V5.45H71.3233V2.06H86.6833ZM105.198 14.33C105.198 14.93 105.158 15.47 105.078 15.95H92.9277C93.0277 17.15 93.4477 18.09 94.1877 18.77C94.9277 19.45 95.8377 19.79 96.9177 19.79C98.4777 19.79 99.5877 19.12 100.248 17.78H104.778C104.298 19.38 103.378 20.7 102.018 21.74C100.658 22.76 98.9877 23.27 97.0077 23.27C95.4077 23.27 93.9677 22.92 92.6877 22.22C91.4277 21.5 90.4377 20.49 89.7177 19.19C89.0177 17.89 88.6677 16.39 88.6677 14.69C88.6677 12.97 89.0177 11.46 89.7177 10.16C90.4177 8.86 91.3977 7.86 92.6577 7.16C93.9177 6.46 95.3677 6.11 97.0077 6.11C98.5877 6.11 99.9977 6.45 101.238 7.13C102.498 7.81 103.468 8.78 104.148 10.04C104.848 11.28 105.198 12.71 105.198 14.33ZM100.848 13.13C100.828 12.05 100.438 11.19 99.6777 10.55C98.9177 9.89 97.9877 9.56 96.8877 9.56C95.8477 9.56 94.9677 9.88 94.2477 10.52C93.5477 11.14 93.1177 12.01 92.9577 13.13H100.848ZM107.183 14.69C107.183 12.97 107.533 11.47 108.233 10.19C108.933 8.89 109.903 7.89 111.143 7.19C112.383 6.47 113.803 6.11 115.403 6.11C117.463 6.11 119.163 6.63 120.503 7.67C121.863 8.69 122.773 10.13 123.233 11.99H118.703C118.463 11.27 118.053 10.71 117.473 10.31C116.913 9.89 116.213 9.68 115.373 9.68C114.173 9.68 113.223 10.12 112.523 11C111.823 11.86 111.473 13.09 111.473 14.69C111.473 16.27 111.823 17.5 112.523 18.38C113.223 19.24 114.173 19.67 115.373 19.67C117.073 19.67 118.183 18.91 118.703 17.39H123.233C122.773 19.19 121.863 20.62 120.503 21.68C119.143 22.74 117.443 23.27 115.403 23.27C113.803 23.27 112.383 22.92 111.143 22.22C109.903 21.5 108.933 20.5 108.233 19.22C107.533 17.92 107.183 16.41 107.183 14.69ZM135.67 6.14C136.93 6.14 138.05 6.42 139.03 6.98C140.01 7.52 140.77 8.33 141.31 9.41C141.87 10.47 142.15 11.75 142.15 13.25V23H137.95V13.82C137.95 12.5 137.62 11.49 136.96 10.79C136.3 10.07 135.4 9.71 134.26 9.71C133.1 9.71 132.18 10.07 131.5 10.79C130.84 11.49 130.51 12.5 130.51 13.82V23H126.31V0.8H130.51V8.45C131.05 7.73 131.77 7.17 132.67 6.77C133.57 6.35 134.57 6.14 135.67 6.14Z" fill="white"/>
</svg>
